<?xml version="1.0" standalone="no"?>
<!DOCTYPE svg PUBLIC "-//W3C//DTD SVG 20010904//EN"
 "http://www.w3.org/TR/2001/REC-SVG-20010904/DTD/svg10.dtd">
<svg version="1.0" xmlns="http://www.w3.org/2000/svg"
 width="484.000000pt" height="484.000000pt" viewBox="0 0 484.000000 484.000000"
 preserveAspectRatio="xMidYMid meet">
<metadata>
Created by potrace 1.11, written by Peter Selinger 2001-2013
</metadata>
<g transform="translate(0.000000,484.000000) scale(0.100000,-0.100000)"
fill="#000000" stroke="none">
<path d="M819 4826 c-25 -13 -49 -26 -274 -151 -72 -40 -155 -86 -185 -102
-30 -17 -95 -53 -145 -80 -50 -28 -112 -63 -140 -78 -27 -15 -54 -31 -58 -35
-7 -6 4 -60 53 -265 11 -44 76 -323 145 -620 69 -297 134 -576 145 -620 10
-44 71 -305 135 -580 64 -275 118 -507 121 -516 2 -9 59 -44 127 -79 67 -34
145 -75 172 -90 28 -15 92 -49 143 -74 l92 -47 348 197 c191 108 378 215 416
238 l69 41 61 163 61 163 5 -827 5 -827 159 -109 c248 -169 435 -277 626 -363
97 -44 271 -108 323 -120 12 -2 40 -9 62 -14 33 -9 161 -24 200 -24 79 0 170
37 243 98 20 17 161 116 312 220 151 104 295 203 320 220 25 17 101 70 170
117 l125 86 42 108 c99 259 132 429 128 673 -2 127 -14 257 -30 311 -2 8 -7
31 -10 50 -16 103 -73 287 -131 428 -199 483 -544 857 -989 1073 -129 62 -299
129 -328 129 -10 0 -26 4 -35 9 -10 5 -71 21 -138 36 l-120 27 -194 -113
c-379 -219 -382 -220 -375 -199 4 11 49 134 100 272 52 139 91 256 87 260 -4
4 -50 30 -102 58 -52 29 -122 67 -155 85 -212 115 -252 134 -261 126 -5 -6
-72 -44 -149 -86 -205 -112 -301 -165 -422 -232 -55 -31 -62 -32 -67 -16 -3
10 -48 205 -101 433 -52 228 -99 417 -103 421 -4 3 -97 53 -207 109 -110 57
-204 106 -210 110 -23 16 -44 18 -66 6z"/>
</g>
</svg>
